<svg xmlns="http://www.w3.org/2000/svg" width="77" height="39" viewBox="0 0 77 39">
    <path fill="#FFF" fill-rule="nonzero" d="M1.496 19.384c.104-1.733.537-3.172 1.3-4.316a8.852 8.852 0 0 1 2.912-2.756c1.179-.693 2.505-1.187 3.978-1.482a22.616 22.616 0 0 1 4.446-.442c1.352 0 2.721.095 4.108.286 1.387.19 2.652.563 3.796 1.118a7.48 7.48 0 0 1 2.808 2.314c.728.988 1.092 2.297 1.092 3.926V32.02c0 1.213.07 2.375.208 3.484.139 1.11.381 1.941.728 2.496h-7.488c-.139-.416-.251-.84-.338-1.274a11.094 11.094 0 0 1-.182-1.326 9.622 9.622 0 0 1-4.16 2.548 16.697 16.697 0 0 1-4.888.728c-1.283 0-2.479-.156-3.588-.468-1.11-.312-2.08-.797-2.912-1.456a6.778 6.778 0 0 1-1.95-2.496c-.468-1.005-.702-2.201-.702-3.588 0-1.525.269-2.782.806-3.77s1.23-1.777 2.08-2.366c.85-.59 1.82-1.031 2.912-1.326a31.087 31.087 0 0 1 3.302-.702 56.44 56.44 0 0 1 3.276-.416 19.7 19.7 0 0 0 2.86-.468c.832-.208 1.49-.511 1.976-.91.485-.399.71-.98.676-1.742 0-.797-.13-1.43-.39-1.898a2.868 2.868 0 0 0-1.04-1.092 4.091 4.091 0 0 0-1.508-.52 12.34 12.34 0 0 0-1.846-.13c-1.456 0-2.6.312-3.432.936-.832.624-1.317 1.664-1.456 3.12H1.496zm17.056 5.46a3.312 3.312 0 0 1-1.17.65c-.468.156-.97.286-1.508.39-.537.104-1.1.19-1.69.26-.59.07-1.179.156-1.768.26-.555.104-1.1.243-1.638.416a4.843 4.843 0 0 0-1.404.702c-.399.295-.72.667-.962 1.118-.243.45-.364 1.023-.364 1.716 0 .659.121 1.213.364 1.664.243.45.572.806.988 1.066.416.26.901.442 1.456.546a9.293 9.293 0 0 0 1.716.156c1.456 0 2.583-.243 3.38-.728.797-.485 1.387-1.066 1.768-1.742.381-.676.615-1.36.702-2.054.087-.693.13-1.248.13-1.664v-2.756zm26.412-.26c0-1.144-.121-2.236-.364-3.276-.243-1.04-.624-1.959-1.144-2.756a5.992 5.992 0 0 0-1.95-1.898c-.78-.468-1.725-.702-2.834-.702-1.075 0-2.01.234-2.808.702a5.905 5.905 0 0 0-1.976 1.898c-.52.797-.901 1.716-1.144 2.756a14.376 14.376 0 0 0-.364 3.276c0 1.11.121 2.184.364 3.224s.624 1.959 1.144 2.756a5.905 5.905 0 0 0 1.976 1.898c.797.468 1.733.702 2.808.702 1.11 0 2.054-.234 2.834-.702.78-.468 1.43-1.1 1.95-1.898.52-.797.901-1.716 1.144-2.756.243-1.04.364-2.115.364-3.224zM25.256.872h7.384v13.52h.104a7.879 7.879 0 0 1 3.666-3.042 12.411 12.411 0 0 1 4.81-.962c1.352 0 2.687.277 4.004.832 1.317.555 2.505 1.404 3.562 2.548 1.057 1.144 1.915 2.609 2.574 4.394.659 1.785.988 3.909.988 6.37 0 2.461-.33 4.585-.988 6.37-.659 1.785-1.517 3.25-2.574 4.394-1.057 1.144-2.245 1.993-3.562 2.548-1.317.555-2.652.832-4.004.832-1.976 0-3.744-.312-5.304-.936-1.56-.624-2.739-1.681-3.536-3.172h-.104V38h-7.02V.872zM68.932 20.58c-.485-3.085-2.305-4.628-5.46-4.628-1.179 0-2.167.269-2.964.806a6.406 6.406 0 0 0-1.95 2.08 8.984 8.984 0 0 0-1.066 2.808 15.231 15.231 0 0 0-.312 3.042c0 .97.104 1.959.312 2.964a9.17 9.17 0 0 0 1.014 2.73 5.826 5.826 0 0 0 1.898 2.002c.797.52 1.768.78 2.912.78 1.768 0 3.129-.494 4.082-1.482.953-.988 1.551-2.314 1.794-3.978h7.124c-.485 3.57-1.872 6.292-4.16 8.164-2.288 1.872-5.217 2.808-8.788 2.808-2.01 0-3.857-.338-5.538-1.014-1.681-.676-3.111-1.62-4.29-2.834-1.179-1.213-2.097-2.66-2.756-4.342-.659-1.681-.988-3.527-.988-5.538 0-2.08.303-4.013.91-5.798.607-1.785 1.5-3.328 2.678-4.628 1.179-1.3 2.617-2.314 4.316-3.042 1.699-.728 3.64-1.092 5.824-1.092 1.595 0 3.129.208 4.602.624 1.473.416 2.79 1.049 3.952 1.898a10.159 10.159 0 0 1 2.834 3.172c.728 1.265 1.144 2.765 1.248 4.498h-7.228z"/>
</svg>
